<svg width="44" height="39" viewBox="0 0 44 39" fill="none" xmlns="http://www.w3.org/2000/svg">
<path d="M10.8 31C10.03 31 9.37083 30.7185 8.8225 30.1555C8.27417 29.5924 8 28.9156 8 28.125V10.875C8 10.0844 8.27417 9.40755 8.8225 8.84453C9.37083 8.28151 10.03 8 10.8 8H33.2C33.97 8 34.6292 8.28151 35.1775 8.84453C35.7258 9.40755 36 10.0844 36 10.875V28.125C36 28.9156 35.7258 29.5924 35.1775 30.1555C34.6292 30.7185 33.97 31 33.2 31H10.8ZM22 20.9375L10.8 13.75V28.125H33.2V13.75L22 20.9375ZM22 18.0625L33.2 10.875H10.8L22 18.0625ZM10.8 13.75V10.875V28.125V13.75Z" fill="white"/>
</svg>
